<svg xmlns="http://www.w3.org/2000/svg" xmlns:xlink="http://www.w3.org/1999/xlink" width="600" zoomAndPan="magnify" viewBox="0 0 450 299.999988" height="400" preserveAspectRatio="xMidYMid meet" version="1.2"><defs><clipPath id="e0a381a6ec"><path d="M 35 5 L 415 5 L 415 295.238281 L 35 295.238281 Z M 35 5 "/></clipPath><clipPath id="e6ba8c95e1"><path d="M 34.652344 4.988281 L 415.652344 4.988281 L 415.652344 183 L 34.652344 183 Z M 34.652344 4.988281 "/></clipPath></defs><g id="115c9be13c"><g clip-rule="nonzero" clip-path="url(#e0a381a6ec)"><path style=" stroke:none;fill-rule:nonzero;fill:#333333;fill-opacity:1;" d="M 414.75 12.9375 L 414.75 174.207031 C 414.75 178.171875 411.519531 181.394531 407.5625 181.394531 L 303.65625 181.394531 C 299.6875 181.394531 296.46875 178.164062 296.46875 174.207031 L 296.46875 102.777344 L 295.105469 104.542969 C 293.324219 106.851562 291.3125 109.3125 289.144531 111.847656 C 287.75 113.46875 286.195312 115.167969 284.515625 116.886719 L 284.300781 117.109375 L 284.300781 174.199219 C 284.300781 178.164062 281.070312 181.386719 277.113281 181.386719 L 244.882812 181.386719 L 244.652344 181.722656 C 233.171875 198.914062 222.519531 209.078125 206.664062 217.980469 C 190.226562 227.222656 160.539062 241.164062 160.242188 241.308594 L 159.777344 241.53125 L 160.003906 245.953125 C 160.257812 246.023438 160.515625 246.089844 160.773438 246.144531 L 161.027344 251.558594 L 163.179688 295.21875 L 63.28125 295.21875 C 63.28125 295.21875 55.246094 234.371094 56.136719 218.671875 C 57.441406 196.089844 78.996094 194.960938 83.03125 194.953125 C 83.449219 194.953125 83.679688 194.960938 83.679688 194.960938 L 84.441406 194.960938 L 84.441406 185.847656 C 84.191406 186.078125 83.9375 186.296875 83.679688 186.511719 C 83.296875 186.832031 82.917969 187.140625 82.515625 187.417969 C 82.019531 187.757812 81.464844 187.933594 80.894531 187.949219 C 79.949219 187.988281 78.988281 187.589844 78.328125 186.84375 C 77.816406 186.238281 77.542969 185.492188 77.542969 184.75 C 77.542969 183.992188 77.816406 183.25 78.34375 182.636719 C 78.472656 182.484375 78.617188 182.316406 78.753906 182.140625 C 78.941406 181.910156 79.148438 181.652344 79.363281 181.378906 L 42.746094 181.378906 C 38.777344 181.378906 35.558594 178.148438 35.558594 174.191406 L 35.558594 12.9375 C 35.558594 8.980469 38.785156 5.75 42.746094 5.75 L 146.648438 5.75 C 150.617188 5.75 153.835938 8.980469 153.835938 12.9375 L 153.835938 162.398438 L 154.820312 162.105469 C 155.101562 162.023438 155.398438 161.976562 155.695312 161.976562 C 156.691406 161.976562 157.621094 162.464844 158.175781 163.28125 C 159.070312 164.582031 158.800781 166.378906 157.5625 167.359375 L 153.835938 170.316406 L 153.835938 174.207031 C 153.835938 176.605469 152.640625 178.84375 150.648438 180.183594 L 150.199219 180.480469 L 150.328125 180.996094 C 150.601562 182.0625 150.21875 183.191406 149.367188 183.867188 L 147.996094 184.957031 C 148.050781 185.011719 148.105469 185.0625 148.140625 185.140625 C 148.292969 185.4375 148.226562 185.78125 148.003906 186.007812 L 148.734375 187.433594 C 149.285156 188.503906 149.328125 189.753906 148.851562 190.875 L 148.195312 192.417969 L 149.785156 191.894531 C 156.425781 189.714844 163.597656 186.601562 172.285156 182.75 L 174.671875 181.691406 L 172.089844 181.292969 C 168.609375 180.761719 165.988281 177.714844 165.988281 174.199219 L 165.988281 12.9375 C 165.988281 8.972656 169.21875 5.75 173.179688 5.75 L 277.074219 5.75 C 281.042969 5.75 284.261719 8.980469 284.261719 12.9375 L 284.261719 67.667969 L 285.40625 67.007812 C 286.484375 66.382812 287.453125 66.070312 288.273438 66.070312 C 288.953125 66.070312 289.53125 66.277344 290.058594 66.710938 L 290.09375 66.742188 L 290.445312 66.214844 C 290.46875 66.175781 290.507812 66.152344 290.535156 66.125 C 290.597656 66.054688 290.671875 66.003906 290.75 65.964844 C 290.824219 65.925781 290.902344 65.902344 290.984375 65.886719 C 291.015625 65.886719 291.039062 65.886719 291.070312 65.886719 C 291.128906 65.886719 291.183594 65.878906 291.246094 65.894531 C 291.335938 65.917969 291.421875 65.949219 291.503906 66.003906 C 291.59375 66.0625 291.671875 66.148438 291.722656 66.238281 C 291.875 66.480469 291.882812 66.800781 291.710938 67.058594 L 291.632812 67.175781 L 292.097656 66.902344 C 292.769531 66.527344 294.078125 65.894531 295.332031 65.894531 C 295.425781 65.894531 295.515625 65.894531 295.609375 65.902344 L 296.429688 65.972656 L 296.429688 12.9375 C 296.429688 8.972656 299.660156 5.75 303.617188 5.75 L 407.515625 5.75 C 411.519531 5.75 414.75 8.980469 414.75 12.9375 Z M 383.371094 208.179688 L 269.367188 208.179688 C 268.601562 208.179688 267.730469 208.410156 266.863281 208.789062 C 266.589844 208.613281 266.222656 208.621094 265.964844 208.84375 C 265.796875 208.988281 265.714844 209.183594 265.707031 209.390625 C 264.425781 210.167969 263.246094 211.257812 262.507812 212.4375 L 219.859375 280.683594 C 219.425781 281.375 219.246094 281.929688 219.183594 282.347656 L 218.484375 282.761719 C 218.445312 282.785156 218.421875 282.8125 218.390625 282.835938 C 218.253906 282.949219 218.164062 283.101562 218.125 283.269531 C 218.117188 283.292969 218.125 283.324219 218.117188 283.347656 C 218.109375 283.40625 218.101562 283.46875 218.109375 283.53125 C 218.125 283.621094 218.148438 283.710938 218.199219 283.796875 C 218.347656 284.039062 218.597656 284.175781 218.855469 284.175781 C 218.878906 284.175781 218.894531 284.167969 218.917969 284.167969 C 219.03125 284.160156 219.136719 284.132812 219.246094 284.070312 L 219.6875 283.8125 C 219.992188 284.015625 220.417969 284.132812 220.949219 284.132812 L 334.949219 284.132812 C 335.910156 284.132812 337.082031 283.78125 338.242188 283.132812 L 338.277344 283.109375 L 338.566406 283.726562 C 338.582031 283.75 338.597656 283.773438 338.613281 283.796875 C 338.683594 283.910156 338.78125 284 338.886719 284.070312 C 338.894531 284.078125 338.910156 284.078125 338.925781 284.085938 C 338.972656 284.109375 339.015625 284.132812 339.0625 284.144531 C 339.125 284.160156 339.191406 284.175781 339.261719 284.175781 C 339.367188 284.175781 339.472656 284.152344 339.582031 284.109375 C 339.960938 283.933594 340.128906 283.476562 339.953125 283.09375 L 339.898438 282.972656 L 339.574219 282.257812 C 340.507812 281.542969 341.285156 280.71875 341.820312 279.867188 L 384.464844 211.621094 C 385.152344 210.519531 385.359375 209.488281 385.015625 208.875 C 384.679688 208.300781 383.941406 208.179688 383.371094 208.179688 Z M 383.371094 208.179688 "/></g><path style=" stroke:none;fill-rule:nonzero;fill:#fcc64d;fill-opacity:1;" d="M 338.566406 283.742188 C 338.582031 283.765625 338.597656 283.789062 338.613281 283.8125 C 338.324219 283.972656 338.027344 284.117188 337.730469 284.246094 C 337.699219 284.261719 337.675781 284.269531 337.644531 284.285156 C 337.363281 284.40625 337.082031 284.503906 336.800781 284.59375 C 336.761719 284.609375 336.726562 284.617188 336.6875 284.632812 C 336.414062 284.71875 336.140625 284.777344 335.863281 284.824219 C 335.835938 284.832031 335.796875 284.832031 335.765625 284.839844 C 335.484375 284.886719 335.21875 284.90625 334.949219 284.90625 L 220.949219 284.90625 C 220.746094 284.90625 220.554688 284.890625 220.371094 284.863281 C 220.324219 284.855469 220.289062 284.847656 220.242188 284.839844 C 220.074219 284.808594 219.914062 284.769531 219.769531 284.71875 C 219.761719 284.71875 219.753906 284.710938 219.746094 284.710938 C 219.578125 284.648438 219.433594 284.574219 219.296875 284.488281 C 219.289062 284.480469 219.28125 284.480469 219.273438 284.472656 C 219.136719 284.390625 219.023438 284.289062 218.917969 284.175781 C 219.03125 284.167969 219.136719 284.140625 219.246094 284.078125 L 292.570312 241.25 L 297.511719 247.042969 C 298.328125 247.996094 299.621094 248.472656 301.179688 248.472656 C 302.628906 248.472656 304.3125 248.0625 306.054688 247.234375 L 318.871094 241.132812 Z M 383.371094 207.417969 L 269.367188 207.417969 C 266.816406 207.417969 263.460938 209.488281 261.863281 212.039062 L 219.214844 280.285156 C 219.085938 280.5 218.96875 280.703125 218.871094 280.910156 C 218.847656 280.964844 218.824219 281.007812 218.800781 281.054688 C 218.710938 281.253906 218.628906 281.449219 218.566406 281.640625 C 218.503906 281.839844 218.460938 282.03125 218.429688 282.210938 C 218.421875 282.25 218.421875 282.289062 218.414062 282.320312 C 218.390625 282.5 218.375 282.675781 218.382812 282.835938 C 218.414062 282.8125 218.4375 282.777344 218.476562 282.761719 L 291.566406 240.066406 L 265.875 209.917969 C 265.601562 209.597656 265.636719 209.117188 265.957031 208.84375 C 266.277344 208.570312 266.757812 208.605469 267.03125 208.925781 L 298.667969 246.054688 C 299.757812 247.332031 302.46875 247.257812 305.398438 245.863281 L 383.644531 208.636719 C 384.023438 208.453125 384.480469 208.613281 384.65625 208.996094 C 384.839844 209.375 384.679688 209.832031 384.300781 210.007812 L 320.238281 240.488281 L 339.886719 282.980469 C 340.136719 282.789062 340.386719 282.59375 340.625 282.386719 C 340.625 282.386719 340.632812 282.378906 340.632812 282.378906 C 340.859375 282.175781 341.082031 281.96875 341.292969 281.746094 C 341.300781 281.742188 341.308594 281.734375 341.316406 281.726562 C 341.515625 281.519531 341.695312 281.304688 341.871094 281.085938 C 341.902344 281.046875 341.941406 281 341.972656 280.964844 C 342.140625 280.742188 342.296875 280.523438 342.445312 280.292969 L 385.089844 212.046875 C 386.699219 209.480469 385.921875 207.417969 383.371094 207.417969 Z M 222.632812 85.113281 C 207.28125 85.113281 194.847656 72.671875 194.847656 57.328125 C 194.847656 41.980469 207.289062 29.546875 222.632812 29.546875 C 237.984375 29.546875 250.417969 41.988281 250.417969 57.328125 C 250.417969 72.671875 237.976562 85.113281 222.632812 85.113281 Z M 218.945312 64.144531 C 218.984375 63.832031 218.824219 63.527344 218.542969 63.375 C 215.535156 61.800781 213.664062 58.714844 213.664062 55.328125 C 213.664062 50.316406 217.738281 46.242188 222.746094 46.242188 C 227.757812 46.242188 231.832031 50.316406 231.832031 55.328125 C 231.832031 58.714844 229.957031 61.800781 226.949219 63.375 C 226.667969 63.519531 226.507812 63.832031 226.546875 64.144531 C 226.585938 64.457031 226.8125 64.714844 227.125 64.792969 C 232.890625 66.183594 237.679688 70.289062 239.949219 75.761719 C 240.105469 76.152344 240.554688 76.335938 240.945312 76.175781 C 241.332031 76.015625 241.515625 75.566406 241.355469 75.175781 C 239.125 69.785156 234.632812 65.628906 229.144531 63.785156 C 231.777344 61.800781 233.359375 58.691406 233.359375 55.328125 C 233.359375 49.480469 228.601562 44.71875 222.753906 44.71875 C 216.90625 44.71875 212.148438 49.480469 212.148438 55.328125 C 212.148438 58.691406 213.722656 61.800781 216.367188 63.785156 C 210.640625 65.699219 206.054688 70.082031 203.910156 75.792969 C 203.765625 76.191406 203.960938 76.625 204.351562 76.777344 C 204.441406 76.804688 204.527344 76.820312 204.617188 76.820312 C 204.921875 76.820312 205.21875 76.632812 205.332031 76.328125 C 207.503906 70.554688 212.375 66.238281 218.375 64.792969 C 218.679688 64.714844 218.910156 64.457031 218.945312 64.144531 Z M 218.945312 64.144531 "/><g clip-rule="nonzero" clip-path="url(#e6ba8c95e1)"><path style=" stroke:none;fill-rule:nonzero;fill:#ffffff;fill-opacity:1;" d="M 285.054688 117.425781 L 285.054688 174.207031 C 285.054688 178.597656 281.492188 182.15625 277.105469 182.15625 L 245.277344 182.15625 C 245.507812 181.8125 245.726562 181.492188 245.957031 181.148438 C 251.15625 173.269531 257.070312 161.832031 261.976562 151.667969 C 267.90625 139.394531 272.375 128.992188 272.375 128.992188 C 272.375 128.992188 278.589844 124.066406 285.054688 117.425781 Z M 285.054688 12.9375 L 285.054688 66.351562 C 276.558594 71.253906 265.027344 91.722656 265.027344 91.722656 L 268.476562 80.957031 C 269.171875 78.792969 267.929688 76.496094 265.753906 75.878906 C 263.832031 75.335938 261.816406 76.28125 261 78.09375 L 251.238281 99.878906 L 188.261719 99.878906 C 187.84375 99.878906 187.5 100.21875 187.5 100.636719 C 187.5 101.058594 187.84375 101.398438 188.261719 101.398438 L 250.554688 101.398438 L 246.253906 110.992188 L 188.261719 110.992188 C 187.84375 110.992188 187.5 111.335938 187.5 111.753906 C 187.5 112.175781 187.84375 112.515625 188.261719 112.515625 L 245.574219 112.515625 L 244.363281 115.210938 L 227.566406 135.335938 L 227.558594 135.335938 L 218.878906 145.738281 L 188.253906 145.738281 C 187.835938 145.738281 187.492188 146.078125 187.492188 146.5 C 187.492188 146.917969 187.835938 147.261719 188.253906 147.261719 L 217.605469 147.261719 L 209.605469 156.855469 L 188.253906 156.855469 C 187.835938 156.855469 187.492188 157.195312 187.492188 157.613281 C 187.492188 158.035156 187.835938 158.375 188.253906 158.375 L 208.332031 158.375 L 198.054688 170.695312 C 187.597656 175.105469 179.164062 178.890625 171.988281 182.0625 C 170.117188 181.78125 168.464844 180.84375 167.261719 179.496094 C 167.230469 179.460938 167.191406 179.421875 167.164062 179.382812 C 167.054688 179.261719 166.957031 179.125 166.859375 178.996094 C 166.804688 178.925781 166.757812 178.867188 166.714844 178.796875 C 166.628906 178.675781 166.546875 178.554688 166.46875 178.433594 C 166.417969 178.347656 166.363281 178.257812 166.308594 178.171875 C 166.242188 178.058594 166.179688 177.9375 166.121094 177.824219 C 166.066406 177.714844 166.011719 177.617188 165.96875 177.511719 C 165.914062 177.398438 165.867188 177.28125 165.824219 177.167969 C 165.777344 177.046875 165.730469 176.925781 165.683594 176.800781 C 165.648438 176.695312 165.609375 176.582031 165.578125 176.476562 C 165.539062 176.339844 165.503906 176.199219 165.472656 176.054688 C 165.449219 175.949219 165.417969 175.851562 165.402344 175.746094 C 165.375 175.585938 165.351562 175.417969 165.328125 175.257812 C 165.3125 175.164062 165.296875 175.082031 165.289062 174.992188 C 165.265625 174.738281 165.25 174.480469 165.25 174.222656 C 165.25 174.222656 165.25 174.214844 165.25 174.214844 L 165.25 12.9375 C 165.25 8.554688 168.808594 4.988281 173.199219 4.988281 L 277.097656 4.988281 C 281.492188 4.988281 285.054688 8.554688 285.054688 12.9375 Z M 187.5 122.871094 C 187.5 123.289062 187.84375 123.632812 188.261719 123.632812 L 236.671875 123.632812 C 237.09375 123.632812 237.433594 123.289062 237.433594 122.871094 C 237.433594 122.453125 237.09375 122.109375 236.671875 122.109375 L 188.261719 122.109375 C 187.84375 122.109375 187.5 122.453125 187.5 122.871094 Z M 250.417969 57.320312 C 250.417969 41.972656 237.976562 29.539062 222.632812 29.539062 C 207.28125 29.539062 194.847656 41.980469 194.847656 57.320312 C 194.847656 72.671875 207.289062 85.105469 222.632812 85.105469 C 237.976562 85.113281 250.417969 72.671875 250.417969 57.320312 Z M 415.511719 12.9375 L 415.511719 174.207031 C 415.511719 178.597656 411.945312 182.15625 407.5625 182.15625 L 303.65625 182.15625 C 299.261719 182.15625 295.707031 178.59375 295.707031 174.207031 L 295.707031 105.015625 C 300.558594 98.726562 305.597656 91.121094 303.761719 88.578125 C 301.675781 85.691406 298.152344 88.417969 295.761719 90.921875 C 295.746094 90.90625 295.738281 90.890625 295.730469 90.886719 C 295.722656 90.878906 295.714844 90.878906 295.714844 90.878906 L 295.714844 90.140625 C 298.441406 85.769531 302.414062 78.816406 302.117188 75.839844 C 301.796875 72.679688 300.015625 71.84375 298.980469 71.621094 C 299.011719 71.347656 298.898438 71.074219 298.652344 70.90625 C 298.601562 70.867188 298.53125 70.851562 298.476562 70.828125 C 298.828125 69.617188 299.261719 67.144531 297.457031 65.773438 C 296.925781 65.371094 296.332031 65.1875 295.722656 65.140625 L 295.722656 12.9375 C 295.707031 8.554688 299.261719 4.988281 303.65625 4.988281 L 407.554688 4.988281 C 411.945312 4.988281 415.511719 8.554688 415.511719 12.9375 Z M 325.296875 57.320312 C 325.296875 72.671875 337.738281 85.105469 353.082031 85.105469 C 368.429688 85.105469 380.863281 72.664062 380.863281 57.320312 C 380.863281 41.972656 368.421875 29.539062 353.082031 29.539062 C 337.738281 29.539062 325.296875 41.980469 325.296875 57.320312 Z M 379.730469 157.613281 C 379.730469 157.195312 379.386719 156.855469 378.96875 156.855469 L 318.726562 156.855469 C 318.304688 156.855469 317.964844 157.195312 317.964844 157.613281 C 317.964844 158.035156 318.304688 158.375 318.726562 158.375 L 378.96875 158.375 C 379.386719 158.375 379.730469 158.035156 379.730469 157.613281 Z M 393.261719 146.5 C 393.261719 146.078125 392.917969 145.738281 392.5 145.738281 L 318.726562 145.738281 C 318.304688 145.738281 317.964844 146.078125 317.964844 146.5 C 317.964844 146.917969 318.304688 147.261719 318.726562 147.261719 L 392.5 147.261719 C 392.917969 147.261719 393.261719 146.917969 393.261719 146.5 Z M 318.71875 123.632812 L 367.128906 123.632812 C 367.546875 123.632812 367.890625 123.289062 367.890625 122.871094 C 367.890625 122.453125 367.546875 122.109375 367.128906 122.109375 L 318.71875 122.109375 C 318.296875 122.109375 317.957031 122.453125 317.957031 122.871094 C 317.957031 123.289062 318.296875 123.632812 318.71875 123.632812 Z M 393.261719 111.753906 C 393.261719 111.335938 392.917969 110.992188 392.5 110.992188 L 318.726562 110.992188 C 318.304688 110.992188 317.964844 111.335938 317.964844 111.753906 C 317.964844 112.175781 318.304688 112.515625 318.726562 112.515625 L 392.5 112.515625 C 392.917969 112.515625 393.261719 112.175781 393.261719 111.753906 Z M 393.261719 100.636719 C 393.261719 100.21875 392.917969 99.878906 392.5 99.878906 L 318.726562 99.878906 C 318.304688 99.878906 317.964844 100.21875 317.964844 100.636719 C 317.964844 101.058594 318.304688 101.398438 318.726562 101.398438 L 392.5 101.398438 C 392.917969 101.398438 393.261719 101.058594 393.261719 100.636719 Z M 154.597656 12.9375 L 154.597656 161.375 C 154.195312 161.5 153.808594 161.664062 153.441406 161.933594 L 147.402344 166.324219 C 147.335938 166.234375 147.257812 166.15625 147.152344 166.097656 C 147.144531 166.097656 147.144531 166.097656 147.136719 166.089844 C 149.902344 160.386719 150.457031 153.617188 148.140625 147.183594 L 146.019531 141.335938 L 147.9375 138.550781 C 149.871094 135.738281 147.167969 132.070312 143.917969 133.082031 L 143.15625 133.320312 L 137.9375 118.84375 C 136.035156 112.738281 132.65625 107.476562 128.300781 103.394531 C 127.546875 102.679688 126.753906 102.015625 125.945312 101.390625 L 131.582031 101.390625 C 132 101.390625 132.34375 101.050781 132.34375 100.632812 C 132.34375 100.210938 132 99.871094 131.582031 99.871094 L 123.90625 99.871094 C 115.132812 93.871094 103.835938 91.804688 92.921875 95.203125 C 89.40625 96.296875 86.175781 97.890625 83.292969 99.871094 L 57.804688 99.871094 C 57.386719 99.871094 57.042969 100.210938 57.042969 100.632812 C 57.042969 101.050781 57.386719 101.390625 57.804688 101.390625 L 81.242188 101.390625 C 77.863281 104.085938 75.023438 107.347656 72.828125 110.984375 L 57.804688 110.984375 C 57.386719 110.984375 57.042969 111.328125 57.042969 111.746094 C 57.042969 112.167969 57.386719 112.507812 57.804688 112.507812 L 71.960938 112.507812 C 70.347656 115.515625 69.160156 118.746094 68.441406 122.101562 L 57.804688 122.101562 C 57.386719 122.101562 57.042969 122.445312 57.042969 122.863281 C 57.042969 123.28125 57.386719 123.625 57.804688 123.625 L 68.160156 123.625 C 67.253906 129.015625 67.558594 134.679688 69.304688 140.253906 L 71.59375 145.730469 L 57.804688 145.730469 C 57.386719 145.730469 57.042969 146.070312 57.042969 146.492188 C 57.042969 146.910156 57.386719 147.253906 57.804688 147.253906 L 72.226562 147.253906 L 76.246094 156.847656 L 57.804688 156.847656 C 57.386719 156.847656 57.042969 157.1875 57.042969 157.609375 C 57.042969 158.027344 57.386719 158.367188 57.804688 158.367188 L 76.894531 158.367188 L 81.160156 168.535156 L 75.707031 172.78125 C 74.886719 173.414062 74.421875 174.390625 74.421875 175.378906 C 74.421875 175.890625 74.550781 176.414062 74.800781 176.902344 C 75.707031 178.652344 77.953125 179.246094 79.550781 178.148438 C 81.492188 176.839844 82.847656 175.378906 83.632812 174.433594 C 83.96875 174.03125 84.203125 173.695312 84.335938 173.503906 C 84.121094 173.949219 83.894531 174.351562 83.679688 174.753906 C 81.675781 178.347656 79.992188 180.6875 78.769531 182.164062 L 42.746094 182.164062 C 38.359375 182.164062 34.796875 178.597656 34.796875 174.214844 L 34.796875 12.9375 C 34.796875 8.554688 38.359375 4.988281 42.746094 4.988281 L 146.648438 4.988281 C 151.042969 4.988281 154.597656 8.554688 154.597656 12.9375 Z M 119.960938 57.320312 C 119.960938 41.972656 107.519531 29.539062 92.175781 29.539062 C 76.828125 29.539062 64.390625 41.980469 64.390625 57.320312 C 64.390625 72.671875 76.835938 85.105469 92.175781 85.105469 C 107.519531 85.113281 119.960938 72.671875 119.960938 57.320312 Z M 146.011719 178.539062 C 147.675781 177.679688 149.726562 178.257812 150.683594 179.863281 C 150.867188 180.167969 150.980469 180.488281 151.066406 180.816406 C 151.316406 180.648438 151.554688 180.464844 151.78125 180.273438 C 151.835938 180.230469 151.886719 180.175781 151.941406 180.128906 C 152.109375 179.976562 152.269531 179.824219 152.421875 179.664062 C 152.480469 179.597656 152.542969 179.527344 152.605469 179.46875 C 152.75 179.308594 152.878906 179.140625 153.007812 178.964844 C 153.0625 178.894531 153.105469 178.835938 153.160156 178.765625 C 153.328125 178.53125 153.488281 178.28125 153.625 178.027344 C 153.625 178.027344 153.625 178.019531 153.632812 178.019531 C 153.777344 177.761719 153.898438 177.488281 154.011719 177.214844 C 154.042969 177.128906 154.074219 177.046875 154.105469 176.96875 C 154.179688 176.773438 154.242188 176.566406 154.300781 176.359375 C 154.332031 176.261719 154.355469 176.164062 154.378906 176.0625 C 154.421875 175.859375 154.46875 175.644531 154.5 175.441406 C 154.515625 175.347656 154.53125 175.25 154.546875 175.15625 C 154.582031 174.851562 154.605469 174.546875 154.605469 174.230469 L 154.605469 170.710938 L 142.269531 180.503906 Z M 146.011719 178.539062 "/></g><path style=" stroke:none;fill-rule:nonzero;fill:#8b63f3;fill-opacity:1;" d="M 92.175781 29.539062 C 76.828125 29.539062 64.390625 41.980469 64.390625 57.320312 C 64.390625 72.671875 76.835938 85.105469 92.175781 85.105469 C 107.527344 85.105469 119.960938 72.664062 119.960938 57.320312 C 119.960938 41.980469 107.519531 29.539062 92.175781 29.539062 Z M 110.480469 76.175781 C 110.09375 76.335938 109.644531 76.152344 109.484375 75.761719 C 107.214844 70.289062 102.425781 66.183594 96.660156 64.792969 C 96.355469 64.714844 96.121094 64.457031 96.082031 64.144531 C 96.046875 63.832031 96.203125 63.527344 96.488281 63.375 C 99.496094 61.800781 101.367188 58.714844 101.367188 55.328125 C 101.367188 50.316406 97.292969 46.242188 92.285156 46.242188 C 87.273438 46.242188 83.199219 50.316406 83.199219 55.328125 C 83.199219 58.714844 85.074219 61.800781 88.082031 63.375 C 88.363281 63.519531 88.523438 63.832031 88.484375 64.144531 C 88.445312 64.457031 88.21875 64.714844 87.90625 64.792969 C 81.90625 66.238281 77.03125 70.554688 74.863281 76.328125 C 74.746094 76.632812 74.457031 76.820312 74.144531 76.820312 C 74.054688 76.820312 73.964844 76.804688 73.878906 76.777344 C 73.484375 76.632812 73.285156 76.191406 73.4375 75.792969 C 75.578125 70.089844 80.167969 65.699219 85.894531 63.785156 C 83.261719 61.800781 81.683594 58.691406 81.683594 55.328125 C 81.683594 49.480469 86.445312 44.71875 92.292969 44.71875 C 98.140625 44.71875 102.898438 49.480469 102.898438 55.328125 C 102.898438 58.691406 101.320312 61.800781 98.679688 63.785156 C 104.167969 65.628906 108.660156 69.785156 110.894531 75.175781 C 111.058594 75.574219 110.871094 76.015625 110.480469 76.175781 Z M 353.089844 29.539062 C 337.738281 29.539062 325.304688 41.980469 325.304688 57.320312 C 325.304688 72.671875 337.746094 85.105469 353.089844 85.105469 C 368.4375 85.105469 380.871094 72.664062 380.871094 57.320312 C 380.871094 41.980469 368.429688 29.539062 353.089844 29.539062 Z M 371.394531 76.175781 C 371.003906 76.335938 370.554688 76.152344 370.394531 75.761719 C 368.125 70.289062 363.335938 66.183594 357.574219 64.792969 C 357.269531 64.714844 357.03125 64.457031 356.996094 64.144531 C 356.957031 63.832031 357.117188 63.527344 357.398438 63.375 C 360.40625 61.800781 362.277344 58.714844 362.277344 55.328125 C 362.277344 50.316406 358.203125 46.242188 353.195312 46.242188 C 348.183594 46.242188 344.109375 50.316406 344.109375 55.328125 C 344.109375 58.714844 345.984375 61.800781 348.992188 63.375 C 349.273438 63.519531 349.433594 63.832031 349.394531 64.144531 C 349.355469 64.457031 349.128906 64.714844 348.816406 64.792969 C 342.816406 66.238281 337.941406 70.554688 335.773438 76.328125 C 335.660156 76.632812 335.371094 76.820312 335.058594 76.820312 C 334.964844 76.820312 334.875 76.804688 334.789062 76.777344 C 334.394531 76.632812 334.195312 76.191406 334.347656 75.792969 C 336.488281 70.089844 341.082031 65.699219 346.804688 63.785156 C 344.171875 61.800781 342.59375 58.691406 342.59375 55.328125 C 342.59375 49.480469 347.355469 44.71875 353.203125 44.71875 C 359.050781 44.71875 363.808594 49.480469 363.808594 55.328125 C 363.808594 58.691406 362.226562 61.800781 359.589844 63.785156 C 365.082031 65.628906 369.574219 69.785156 371.804688 75.175781 C 371.964844 75.574219 371.78125 76.015625 371.394531 76.175781 Z M 261.96875 151.683594 L 227.566406 135.34375 L 227.558594 135.34375 L 218.878906 145.746094 L 217.605469 147.265625 L 209.605469 156.859375 L 208.332031 158.382812 L 198.054688 170.703125 C 187.597656 175.113281 179.164062 178.894531 171.988281 182.070312 C 171.980469 182.070312 171.976562 182.078125 171.96875 182.078125 C 171.496094 182.285156 171.03125 182.496094 170.566406 182.695312 C 170.460938 182.742188 170.34375 182.792969 170.238281 182.839844 C 169.8125 183.03125 169.394531 183.214844 168.976562 183.394531 C 168.859375 183.449219 168.738281 183.503906 168.625 183.546875 C 168.199219 183.730469 167.777344 183.921875 167.367188 184.097656 C 167.269531 184.144531 167.171875 184.1875 167.0625 184.226562 C 166.628906 184.417969 166.203125 184.597656 165.777344 184.789062 C 165.699219 184.820312 165.632812 184.851562 165.554688 184.882812 C 165.105469 185.070312 164.664062 185.261719 164.230469 185.453125 C 164.183594 185.476562 164.132812 185.496094 164.085938 185.511719 C 163.628906 185.710938 163.179688 185.902344 162.738281 186.089844 C 162.707031 186.105469 162.675781 186.113281 162.648438 186.128906 C 162.191406 186.320312 161.742188 186.511719 161.300781 186.699219 C 161.277344 186.707031 161.253906 186.722656 161.230469 186.730469 C 160.78125 186.921875 160.332031 187.105469 159.898438 187.289062 C 159.882812 187.292969 159.867188 187.300781 159.84375 187.308594 C 156.175781 188.824219 152.808594 190.113281 149.566406 191.171875 C 148.105469 191.648438 146.664062 192.085938 145.234375 192.480469 C 145.234375 192.480469 138.664062 241.402344 160.765625 246.160156 L 160.554688 242.015625 C 160.554688 242.015625 190.371094 228.03125 207.023438 218.664062 C 208.050781 218.085938 209.0625 217.5 210.046875 216.914062 C 210.480469 216.65625 210.898438 216.386719 211.324219 216.121094 C 211.859375 215.792969 212.40625 215.46875 212.933594 215.132812 C 213.488281 214.773438 214.027344 214.417969 214.570312 214.050781 C 214.941406 213.800781 215.332031 213.554688 215.703125 213.304688 C 216.3125 212.886719 216.898438 212.46875 217.492188 212.039062 C 217.78125 211.835938 218.078125 211.636719 218.359375 211.425781 C 219 210.953125 219.632812 210.472656 220.257812 209.992188 C 220.476562 209.824219 220.707031 209.65625 220.917969 209.488281 C 221.582031 208.972656 222.230469 208.4375 222.875 207.90625 C 223.042969 207.761719 223.226562 207.625 223.394531 207.488281 C 224.0625 206.925781 224.71875 206.351562 225.375 205.773438 C 225.511719 205.652344 225.648438 205.539062 225.785156 205.410156 C 226.453125 204.800781 227.125 204.183594 227.78125 203.558594 C 227.886719 203.453125 228 203.351562 228.105469 203.253906 C 228.785156 202.605469 229.449219 201.9375 230.109375 201.265625 C 230.195312 201.175781 230.285156 201.089844 230.367188 201.007812 C 231.046875 200.316406 231.714844 199.597656 232.378906 198.875 C 232.449219 198.808594 232.515625 198.730469 232.578125 198.664062 C 233.253906 197.925781 233.925781 197.164062 234.59375 196.394531 C 234.648438 196.332031 234.695312 196.28125 234.746094 196.21875 C 235.425781 195.425781 236.09375 194.621094 236.765625 193.796875 C 236.804688 193.75 236.839844 193.707031 236.878906 193.660156 C 237.554688 192.824219 238.234375 191.960938 238.910156 191.085938 C 238.941406 191.046875 238.964844 191.019531 238.996094 190.980469 C 239.679688 190.089844 240.359375 189.183594 241.035156 188.253906 C 241.050781 188.230469 241.074219 188.199219 241.089844 188.179688 C 241.773438 187.234375 242.46875 186.265625 243.152344 185.285156 C 243.160156 185.269531 243.167969 185.261719 243.175781 185.246094 C 243.867188 184.25 244.570312 183.230469 245.269531 182.179688 C 245.269531 182.179688 245.269531 182.171875 245.277344 182.171875 C 245.507812 181.828125 245.726562 181.507812 245.957031 181.164062 C 251.15625 173.285156 257.070312 161.847656 261.976562 151.683594 C 261.96875 151.675781 261.96875 151.675781 261.96875 151.683594 Z M 253.964844 165.375 C 253.828125 165.640625 253.5625 165.792969 253.28125 165.792969 C 253.164062 165.792969 253.050781 165.769531 252.9375 165.707031 L 219.175781 148.78125 C 218.800781 148.59375 218.648438 148.136719 218.832031 147.761719 C 219.023438 147.390625 219.480469 147.238281 219.851562 147.417969 L 253.613281 164.347656 C 254.003906 164.535156 254.15625 164.992188 253.964844 165.375 Z M 253.964844 165.375 "/><path style=" stroke:none;fill-rule:nonzero;fill:#9d5e52;fill-opacity:1;" d="M 158.34375 162.3125 C 158.292969 162.257812 158.222656 162.207031 158.171875 162.152344 C 158.054688 162.054688 157.941406 161.960938 157.820312 161.878906 C 157.734375 161.824219 157.660156 161.773438 157.570312 161.71875 C 157.460938 161.65625 157.355469 161.613281 157.25 161.558594 C 157.140625 161.511719 157.042969 161.460938 156.929688 161.421875 C 156.882812 161.40625 156.828125 161.398438 156.777344 161.382812 C 156.265625 161.230469 155.734375 161.179688 155.199219 161.246094 C 155.183594 161.246094 155.171875 161.246094 155.15625 161.253906 C 154.964844 161.277344 154.78125 161.324219 154.589844 161.375 C 154.1875 161.5 153.800781 161.664062 153.433594 161.933594 L 147.394531 166.324219 C 147.5625 166.554688 147.601562 166.859375 147.464844 167.125 C 144.523438 172.738281 139.621094 177.007812 133.660156 179.140625 C 132.648438 179.503906 131.597656 179.742188 130.566406 179.953125 L 130.566406 193.484375 C 130.566406 193.902344 130.226562 194.246094 129.808594 194.246094 C 129.386719 194.246094 129.046875 193.902344 129.046875 193.484375 L 129.046875 179.339844 C 129.046875 178.980469 129.296875 178.667969 129.648438 178.59375 L 130.050781 178.507812 C 131.085938 178.296875 132.160156 178.066406 133.140625 177.714844 C 138.746094 175.714844 143.351562 171.699219 146.117188 166.425781 C 146.308594 166.058594 146.757812 165.914062 147.128906 166.097656 C 149.894531 160.394531 150.449219 153.625 148.132812 147.191406 L 146.011719 141.34375 L 147.929688 138.558594 C 149.863281 135.746094 147.160156 132.078125 143.910156 133.089844 L 143.148438 133.324219 L 137.929688 118.851562 C 136.027344 112.746094 132.648438 107.484375 128.292969 103.402344 C 127.539062 102.6875 126.746094 102.023438 125.9375 101.398438 C 125.839844 101.324219 125.75 101.238281 125.648438 101.164062 C 126.175781 101.796875 129.769531 106.386719 122.375 107.949219 C 122.375 107.949219 129.480469 114.6875 120.449219 115.996094 C 120.449219 115.996094 126.707031 122.71875 118.332031 124.578125 C 118.332031 124.578125 122.878906 133.730469 113.894531 130.921875 L 113.894531 130.941406 C 106.773438 128.839844 99.800781 130.859375 97.703125 135.929688 C 95.398438 141.511719 99.859375 148.652344 107.679688 151.882812 C 109.765625 152.742188 111.875 153.230469 113.902344 153.390625 L 113.902344 153.40625 C 113.902344 153.40625 116.582031 171.832031 104.261719 181.003906 C 103.140625 181.828125 101.640625 181.910156 100.453125 181.195312 C 99.738281 180.753906 99.25 180.097656 99.039062 179.359375 C 97.40625 182.230469 95.230469 185.324219 92.277344 187.980469 C 91.179688 188.96875 89.597656 189.183594 88.300781 188.46875 C 87.203125 187.835938 86.140625 186.5625 86.140625 185.398438 C 86.140625 184.675781 86.632812 183.6875 87.160156 183.015625 C 86.109375 184.265625 84.929688 185.46875 83.648438 186.519531 L 83.648438 194.960938 L 129.808594 194.960938 C 131.734375 194.855469 133.566406 194.6875 135.363281 194.453125 C 135.714844 194.40625 136.050781 194.34375 136.402344 194.300781 C 136.1875 193.613281 136.195312 192.921875 136.421875 192.222656 C 136.78125 191.125 137.664062 190.164062 138.65625 189.382812 C 137.953125 189.113281 137.320312 188.628906 136.878906 187.957031 C 136.332031 187.128906 136.140625 186.136719 136.347656 185.164062 C 136.554688 184.1875 137.125 183.359375 137.960938 182.816406 L 141.480469 180.542969 C 141.828125 180.3125 142.300781 180.410156 142.53125 180.769531 C 142.757812 181.121094 142.660156 181.59375 142.300781 181.820312 L 138.785156 184.097656 C 138.289062 184.417969 137.953125 184.902344 137.839844 185.476562 C 137.71875 186.046875 137.832031 186.632812 138.152344 187.121094 C 138.738281 188.011719 139.871094 188.34375 140.847656 187.910156 L 141.625 187.570312 C 142.148438 187.316406 142.515625 187.164062 142.636719 187.121094 L 147.113281 184.804688 C 147.488281 184.613281 147.945312 184.757812 148.140625 185.132812 C 148.332031 185.503906 148.1875 185.960938 147.816406 186.160156 L 143.316406 188.492188 C 143.308594 188.496094 143.300781 188.496094 143.285156 188.496094 C 143.277344 188.496094 143.277344 188.503906 143.269531 188.503906 L 142.203125 188.976562 C 140.648438 189.738281 138.371094 191.148438 137.871094 192.699219 C 137.71875 193.164062 137.742188 193.613281 137.9375 194.078125 C 140.398438 193.667969 142.796875 193.136719 145.21875 192.480469 C 146.648438 192.089844 148.089844 191.648438 149.550781 191.171875 C 149.589844 191.085938 149.613281 190.996094 149.640625 190.910156 C 149.6875 190.773438 149.734375 190.636719 149.769531 190.492188 C 149.792969 190.402344 149.816406 190.308594 149.839844 190.21875 C 149.878906 190.011719 149.910156 189.808594 149.921875 189.59375 C 149.929688 189.519531 149.929688 189.441406 149.929688 189.367188 C 149.929688 189.183594 149.929688 188.992188 149.910156 188.800781 C 149.902344 188.75 149.902344 188.695312 149.894531 188.640625 C 149.863281 188.40625 149.808594 188.179688 149.75 187.949219 C 149.734375 187.894531 149.710938 187.835938 149.695312 187.78125 C 149.617188 187.546875 149.527344 187.308594 149.414062 187.082031 L 148.582031 185.460938 L 149.839844 184.460938 C 150 184.332031 150.136719 184.195312 150.273438 184.050781 C 150.320312 183.996094 150.359375 183.945312 150.402344 183.890625 C 150.480469 183.792969 150.554688 183.695312 150.617188 183.59375 C 150.664062 183.519531 150.707031 183.449219 150.746094 183.375 C 150.792969 183.289062 150.828125 183.207031 150.867188 183.113281 C 150.90625 183.015625 150.953125 182.925781 150.980469 182.824219 C 150.996094 182.78125 151.003906 182.742188 151.019531 182.695312 C 151.195312 182.085938 151.21875 181.441406 151.058594 180.816406 C 150.972656 180.488281 150.859375 180.167969 150.675781 179.863281 C 149.710938 178.257812 147.664062 177.679688 146.003906 178.539062 L 142.257812 180.480469 L 154.589844 170.6875 L 158.023438 167.960938 C 159.585938 166.730469 159.921875 164.5 158.792969 162.855469 C 158.671875 162.65625 158.511719 162.472656 158.34375 162.3125 Z M 143.207031 147.542969 C 143.535156 147.28125 144.015625 147.335938 144.273438 147.671875 C 144.53125 148 144.480469 148.476562 144.144531 148.738281 C 142.859375 149.75 141.503906 150.109375 140.269531 150.109375 C 138.640625 150.109375 137.222656 149.484375 136.453125 148.933594 C 136.113281 148.691406 136.035156 148.210938 136.277344 147.867188 C 136.523438 147.527344 136.996094 147.449219 137.335938 147.695312 C 137.460938 147.777344 140.367188 149.773438 143.207031 147.542969 Z M 133.621094 128.203125 C 135.128906 127.730469 136.734375 128.574219 137.199219 130.082031 C 137.671875 131.589844 136.828125 133.195312 135.320312 133.660156 C 133.8125 134.132812 132.207031 133.289062 131.742188 131.78125 C 131.277344 130.273438 132.113281 128.671875 133.621094 128.203125 Z M 105.265625 139.78125 C 104.855469 139.691406 104.601562 139.28125 104.695312 138.867188 C 104.785156 138.457031 105.199219 138.207031 105.609375 138.296875 L 114.378906 140.316406 C 114.792969 140.40625 115.042969 140.816406 114.953125 141.230469 C 114.867188 141.578125 114.554688 141.824219 114.210938 141.824219 C 114.160156 141.824219 114.097656 141.816406 114.039062 141.800781 Z M 295.707031 105.015625 C 295.707031 105.023438 295.699219 105.023438 295.707031 105.015625 C 294.855469 106.121094 294.015625 107.179688 293.21875 108.160156 C 293.203125 108.175781 293.1875 108.199219 293.179688 108.214844 C 292.652344 108.863281 292.144531 109.484375 291.664062 110.058594 C 291.65625 110.066406 291.648438 110.082031 291.632812 110.085938 C 291.421875 110.339844 291.214844 110.582031 291.015625 110.828125 C 290.964844 110.886719 290.910156 110.957031 290.855469 111.015625 C 290.703125 111.199219 290.550781 111.375 290.40625 111.542969 C 290.355469 111.609375 290.292969 111.679688 290.238281 111.738281 C 290.074219 111.929688 289.921875 112.121094 289.769531 112.296875 C 289.753906 112.3125 289.738281 112.332031 289.722656 112.347656 C 288.96875 113.226562 288.199219 114.09375 287.421875 114.9375 C 287.414062 114.945312 287.40625 114.953125 287.398438 114.960938 C 286.625 115.804688 285.839844 116.628906 285.0625 117.425781 C 278.589844 124.066406 272.375 129 272.375 129 C 272.375 129 267.90625 139.402344 261.976562 151.675781 C 261.976562 151.675781 261.976562 151.683594 261.96875 151.683594 L 227.566406 135.34375 L 244.363281 115.21875 L 245.574219 112.523438 L 246.257812 111 L 250.5625 101.40625 L 251.246094 99.886719 L 261.007812 78.101562 C 261.824219 76.28125 263.847656 75.335938 265.761719 75.886719 C 267.945312 76.5 269.179688 78.808594 268.484375 80.964844 L 265.035156 91.730469 C 265.035156 91.730469 276.566406 71.253906 285.0625 66.359375 C 285.304688 66.214844 285.550781 66.09375 285.785156 65.980469 C 285.816406 65.964844 285.839844 65.949219 285.871094 65.941406 C 286.113281 65.828125 286.347656 65.726562 286.585938 65.644531 C 286.59375 65.644531 286.601562 65.636719 286.609375 65.636719 C 286.84375 65.554688 287.078125 65.484375 287.308594 65.4375 C 287.316406 65.4375 287.324219 65.429688 287.332031 65.429688 C 287.566406 65.378906 287.804688 65.347656 288.03125 65.332031 C 288.039062 65.332031 288.039062 65.332031 288.046875 65.332031 C 288.976562 65.269531 289.820312 65.515625 290.574219 66.132812 C 290.542969 66.160156 290.507812 66.183594 290.484375 66.222656 L 276.890625 86.484375 C 276.65625 86.835938 276.746094 87.304688 277.097656 87.542969 C 277.226562 87.625 277.371094 87.671875 277.523438 87.671875 C 277.769531 87.671875 278.011719 87.550781 278.15625 87.335938 L 291.746094 67.074219 C 291.914062 66.816406 291.914062 66.496094 291.761719 66.253906 C 291.871094 66.191406 291.984375 66.132812 292.113281 66.0625 C 292.121094 66.054688 292.136719 66.054688 292.144531 66.046875 C 292.265625 65.988281 292.394531 65.925781 292.523438 65.855469 C 293.398438 65.453125 294.574219 65.066406 295.699219 65.15625 C 296.308594 65.203125 296.910156 65.386719 297.433594 65.789062 C 299.238281 67.167969 298.8125 69.632812 298.457031 70.84375 C 298.136719 70.738281 297.769531 70.835938 297.578125 71.132812 L 284.542969 90.769531 C 284.308594 91.121094 284.40625 91.59375 284.757812 91.828125 C 284.886719 91.914062 285.03125 91.957031 285.175781 91.957031 C 285.421875 91.957031 285.664062 91.835938 285.808594 91.617188 L 298.84375 71.980469 C 298.914062 71.871094 298.941406 71.757812 298.957031 71.636719 C 299.992188 71.855469 301.777344 72.695312 302.09375 75.855469 C 302.390625 78.832031 298.417969 85.785156 295.691406 90.152344 C 295.5625 90.359375 295.441406 90.558594 295.320312 90.753906 C 295.066406 90.726562 294.816406 90.808594 294.640625 91.023438 L 291.519531 94.890625 C 291.253906 95.21875 291.304688 95.695312 291.632812 95.964844 C 291.777344 96.078125 291.945312 96.132812 292.113281 96.132812 C 292.332031 96.132812 292.554688 96.03125 292.707031 95.847656 L 295.828125 91.980469 C 296.078125 91.667969 296.042969 91.21875 295.753906 90.953125 C 298.144531 88.449219 301.667969 85.722656 303.753906 88.609375 C 305.597656 91.121094 300.558594 98.734375 295.707031 105.015625 Z M 295.707031 105.015625 "/></g></svg>