<svg xmlns="http://www.w3.org/2000/svg" xmlns:xlink="http://www.w3.org/1999/xlink" width="600" zoomAndPan="magnify" viewBox="0 0 450 299.999988" height="400" preserveAspectRatio="xMidYMid meet" version="1.2"><g id="1d597a4ab9"><path style=" stroke:none;fill-rule:nonzero;fill:#e7e8ff;fill-opacity:1;" d="M 159.902344 299.96875 L 307.210938 299.96875 C 324.195312 299.96875 340.597656 293.757812 353.332031 282.503906 L 368.542969 269.0625 C 394.394531 246.214844 392.230469 205.234375 364.117188 185.238281 C 341.492188 169.140625 334.910156 138.417969 348.957031 114.457031 L 350.542969 111.75 C 363.242188 90.09375 360.28125 62.679688 343.257812 44.234375 L 322.726562 21.988281 C 302.425781 -0.00390625 266.894531 2.863281 250.378906 27.824219 C 237.820312 46.804688 213.304688 53.789062 192.636719 44.273438 L 183.660156 40.140625 C 157.875 28.269531 127.289062 36.941406 111.5625 60.578125 L 101.484375 75.734375 C 91.507812 90.730469 90.289062 109.910156 98.28125 126.046875 C 107.46875 144.601562 104.382812 166.886719 90.5 182.246094 L 86.453125 186.71875 C 61.1875 214.671875 68.0625 258.804688 100.632812 277.738281 L 120.695312 289.398438 C 132.605469 296.320312 146.132812 299.96875 159.902344 299.96875 Z M 159.902344 299.96875 "/><path style=" stroke:none;fill-rule:nonzero;fill:#032068;fill-opacity:1;" d="M 377.855469 256.898438 C 378.105469 275.796875 365.246094 291.757812 358.714844 297.34375 L 348.703125 297.34375 C 356.144531 272.128906 368.445312 259.585938 375.339844 255.414062 C 376.488281 254.71875 377.839844 255.554688 377.855469 256.898438 Z M 377.855469 256.898438 "/><path style=" stroke:none;fill-rule:nonzero;fill:#ffffff;fill-opacity:1;" d="M 378.914062 194.882812 C 389.167969 233.53125 363.320312 279.304688 352.207031 296.34375 L 329.683594 296.34375 C 339.359375 223.421875 355.578125 205.699219 376.082031 193.726562 C 377.179688 193.082031 378.585938 193.648438 378.914062 194.882812 Z M 378.914062 194.882812 "/><path style=" stroke:none;fill-rule:evenodd;fill:#032068;fill-opacity:1;" d="M 376.585938 194.589844 C 377.125 194.277344 377.792969 194.558594 377.945312 195.140625 C 382.996094 214.179688 379.171875 235.058594 372.632812 253.378906 C 366.210938 271.359375 357.222656 286.761719 351.664062 295.339844 L 330.828125 295.339844 C 335.644531 259.589844 342.042969 237.378906 349.710938 222.644531 C 357.429688 207.804688 366.453125 200.507812 376.585938 194.589844 Z M 379.882812 194.625 C 379.378906 192.738281 377.238281 191.886719 375.578125 192.859375 C 365.203125 198.917969 355.867188 206.46875 347.933594 221.714844 C 340.027344 236.910156 333.535156 259.707031 328.691406 296.210938 L 328.542969 297.34375 L 352.746094 297.34375 L 353.042969 296.890625 C 358.625 288.332031 367.910156 272.558594 374.515625 254.054688 C 381.113281 235.566406 385.082031 214.234375 379.882812 194.625 Z M 379.882812 194.625 "/><path style=" stroke:none;fill-rule:nonzero;fill:#032068;fill-opacity:1;" d="M 342.601562 218.660156 C 351.457031 251.046875 341.320312 284.703125 334.691406 297.34375 L 318.175781 297.34375 C 314.460938 257.875 329.558594 229.171875 339.484375 217.886719 C 340.464844 216.773438 342.210938 217.230469 342.601562 218.660156 Z M 342.601562 218.660156 "/><path style=" stroke:none;fill-rule:evenodd;fill:#032068;fill-opacity:1;" d="M 364.894531 222.382812 L 370.28125 207.210938 L 372.167969 207.882812 L 359.828125 242.636719 L 367.933594 240.199219 L 368.507812 242.121094 L 358.992188 244.984375 L 347.769531 276.589844 L 357.871094 272.824219 L 358.570312 274.707031 L 346.894531 279.058594 L 340.636719 296.679688 L 338.75 296.003906 L 351.457031 260.222656 L 346.757812 247.015625 L 348.644531 246.339844 L 352.519531 257.230469 L 363.757812 225.578125 L 360.253906 213.855469 L 362.171875 213.277344 Z M 364.894531 222.382812 "/><path style=" stroke:none;fill-rule:evenodd;fill:#ffffff;fill-opacity:1;" d="M 334.152344 244.519531 L 336.707031 230.445312 L 338.675781 230.804688 L 333.492188 259.378906 L 340.230469 255.820312 L 341.160156 257.597656 L 333.039062 261.886719 L 328.59375 286.394531 L 334.164062 282.007812 L 335.398438 283.585938 L 328.054688 289.371094 L 326.667969 297.023438 L 324.695312 296.664062 L 328.257812 277.035156 L 322.386719 269.359375 L 323.972656 268.140625 L 328.742188 274.371094 L 333.707031 246.992188 L 328.949219 241.839844 L 330.417969 240.476562 Z M 334.152344 244.519531 "/><path style=" stroke:none;fill-rule:nonzero;fill:#ffffff;fill-opacity:1;" d="M 157.453125 60.242188 L 161.304688 61.175781 C 161.992188 61.34375 162.058594 62.292969 161.40625 62.554688 L 157.816406 64.003906 C 157.601562 64.089844 157.441406 64.277344 157.382812 64.503906 L 156.386719 68.621094 C 156.226562 69.28125 155.324219 69.378906 155.027344 68.761719 L 153.171875 64.90625 C 153.082031 64.71875 152.917969 64.578125 152.71875 64.523438 L 148.191406 63.246094 C 147.519531 63.054688 147.476562 62.117188 148.128906 61.867188 L 152.246094 60.292969 C 152.445312 60.214844 152.601562 60.054688 152.671875 59.851562 L 154.234375 55.316406 C 154.460938 54.648438 155.410156 54.667969 155.613281 55.34375 L 156.929688 59.746094 C 157.003906 59.992188 157.203125 60.183594 157.453125 60.242188 Z M 157.453125 60.242188 "/><path style=" stroke:none;fill-rule:nonzero;fill:#ffffff;fill-opacity:1;" d="M 126.679688 98.234375 L 127.675781 99.039062 C 128.222656 99.484375 127.878906 100.371094 127.171875 100.328125 L 125.933594 100.253906 C 125.699219 100.238281 125.472656 100.339844 125.328125 100.519531 L 124.347656 101.726562 C 123.917969 102.253906 123.0625 101.953125 123.058594 101.269531 L 123.054688 99.671875 C 123.050781 99.464844 122.960938 99.265625 122.804688 99.128906 L 121.460938 97.953125 C 120.9375 97.492188 121.300781 96.628906 121.996094 96.683594 L 123.597656 96.808594 C 123.8125 96.824219 124.023438 96.746094 124.171875 96.59375 L 125.441406 95.300781 C 125.933594 94.796875 126.78125 95.222656 126.675781 95.921875 L 126.421875 97.558594 C 126.382812 97.816406 126.480469 98.070312 126.679688 98.234375 Z M 126.679688 98.234375 "/><path style=" stroke:none;fill-rule:nonzero;fill:#f4ad5e;fill-opacity:1;" d="M 366.917969 157.113281 L 364.035156 161.027344 C 363.859375 161.265625 363.574219 161.378906 363.292969 161.324219 L 359.730469 160.617188 C 358.964844 160.464844 358.5 161.484375 359.09375 162.023438 L 361.894531 164.574219 C 362.097656 164.761719 362.195312 165.046875 362.148438 165.328125 L 361.445312 169.53125 C 361.3125 170.320312 362.230469 170.8125 362.75 170.226562 L 365.628906 166.996094 C 365.796875 166.808594 366.042969 166.714844 366.285156 166.75 L 369.617188 167.230469 C 370.363281 167.339844 370.789062 166.347656 370.21875 165.820312 L 367.742188 163.53125 C 367.542969 163.347656 367.449219 163.066406 367.492188 162.792969 L 368.273438 157.742188 C 368.402344 156.917969 367.40625 156.453125 366.917969 157.113281 Z M 366.917969 157.113281 "/><path style=" stroke:none;fill-rule:nonzero;fill:#ffffff;fill-opacity:1;" d="M 192.621094 53.488281 C 192.621094 47.695312 197.316406 43 203.109375 43 L 322.425781 43 C 328.214844 43 332.910156 47.695312 332.910156 53.488281 L 332.910156 286.820312 C 332.910156 292.613281 328.214844 297.3125 322.425781 297.3125 L 203.109375 297.3125 C 197.316406 297.3125 192.621094 292.613281 192.621094 286.820312 Z M 192.621094 53.488281 "/><path style=" stroke:none;fill-rule:evenodd;fill:#032068;fill-opacity:1;" d="M 191.746094 53.488281 C 191.746094 47.214844 196.835938 42.125 203.109375 42.125 L 322.425781 42.125 C 328.699219 42.125 333.785156 47.214844 333.785156 53.488281 L 333.785156 286.820312 C 333.785156 293.097656 328.699219 298.183594 322.425781 298.183594 L 203.109375 298.183594 C 196.835938 298.183594 191.746094 293.097656 191.746094 286.820312 Z M 203.109375 43.875 C 197.800781 43.875 193.496094 48.179688 193.496094 53.488281 L 193.496094 286.820312 C 193.496094 292.132812 197.800781 296.4375 203.109375 296.4375 L 322.425781 296.4375 C 327.734375 296.4375 332.039062 292.132812 332.039062 286.820312 L 332.039062 53.488281 C 332.039062 48.179688 327.734375 43.875 322.425781 43.875 Z M 203.109375 43.875 "/><path style=" stroke:none;fill-rule:nonzero;fill:#e7e8ff;fill-opacity:1;" d="M 303.617188 136.511719 C 303.617188 159.203125 285.226562 177.59375 262.539062 177.59375 C 239.851562 177.59375 221.464844 159.203125 221.464844 136.511719 C 221.464844 113.824219 239.851562 95.429688 262.539062 95.429688 C 285.226562 95.429688 303.617188 113.824219 303.617188 136.511719 Z M 303.617188 136.511719 "/><path style=" stroke:none;fill-rule:nonzero;fill:#032068;fill-opacity:1;" d="M 234.871094 51.527344 L 230.324219 43 L 295.207031 43 L 289.863281 51.910156 C 288.285156 54.542969 285.441406 56.152344 282.371094 56.152344 L 242.582031 56.152344 C 239.355469 56.152344 236.390625 54.375 234.871094 51.527344 Z M 234.871094 51.527344 "/><path style=" stroke:none;fill-rule:nonzero;fill:#032068;fill-opacity:1;" d="M 331.191406 48.261719 L 193.445312 48.261719 C 198.007812 43.703125 202.363281 42.855469 203.96875 43 L 320.667969 43 C 326.28125 43 330.023438 46.507812 331.191406 48.261719 Z M 331.191406 48.261719 "/><path style=" stroke:none;fill-rule:nonzero;fill:#032068;fill-opacity:1;" d="M 331.085938 292.324219 L 194.371094 292.324219 C 199.109375 296.957031 201.847656 297.820312 203.515625 297.671875 L 321.9375 297.671875 C 327.769531 297.671875 329.871094 294.105469 331.085938 292.324219 Z M 331.085938 292.324219 "/><path style=" stroke:none;fill-rule:nonzero;fill:#f4ad5e;fill-opacity:1;" d="M 212.722656 76.199219 C 212.722656 75.234375 213.503906 74.453125 214.46875 74.453125 L 261.015625 74.453125 C 261.980469 74.453125 262.761719 75.234375 262.761719 76.199219 L 262.761719 78.066406 C 262.761719 79.03125 261.980469 79.8125 261.015625 79.8125 L 214.46875 79.8125 C 213.503906 79.8125 212.722656 79.03125 212.722656 78.066406 Z M 212.722656 76.199219 "/><path style=" stroke:none;fill-rule:nonzero;fill:#032068;fill-opacity:1;" d="M 212.722656 194.203125 C 212.722656 193.238281 213.503906 192.453125 214.46875 192.453125 L 261.015625 192.453125 C 261.980469 192.453125 262.761719 193.238281 262.761719 194.203125 L 262.761719 196.070312 C 262.761719 197.035156 261.980469 197.816406 261.015625 197.816406 L 214.46875 197.816406 C 213.503906 197.816406 212.722656 197.035156 212.722656 196.070312 Z M 212.722656 194.203125 "/><path style=" stroke:none;fill-rule:nonzero;fill:#032068;fill-opacity:1;" d="M 212.722656 240.527344 C 212.722656 239.5625 213.503906 238.78125 214.46875 238.78125 L 242.4375 238.78125 C 243.402344 238.78125 244.183594 239.5625 244.183594 240.527344 L 244.183594 242.277344 C 244.183594 243.242188 243.402344 244.027344 242.4375 244.027344 L 214.46875 244.027344 C 213.503906 244.027344 212.722656 243.242188 212.722656 242.277344 Z M 212.722656 240.527344 "/><path style=" stroke:none;fill-rule:nonzero;fill:#e7e8ff;fill-opacity:1;" d="M 212.722656 207.3125 C 212.722656 206.347656 213.503906 205.566406 214.46875 205.566406 L 307.984375 205.566406 C 308.949219 205.566406 309.734375 206.347656 309.734375 207.3125 L 309.734375 224.796875 C 309.734375 225.761719 308.949219 226.542969 307.984375 226.542969 L 214.46875 226.542969 C 213.503906 226.542969 212.722656 225.761719 212.722656 224.796875 Z M 212.722656 207.3125 "/><path style=" stroke:none;fill-rule:nonzero;fill:#e7e8ff;fill-opacity:1;" d="M 212.722656 252.765625 C 212.722656 251.800781 213.503906 251.019531 214.46875 251.019531 L 307.984375 251.019531 C 308.949219 251.019531 309.734375 251.800781 309.734375 252.765625 L 309.734375 270.25 C 309.734375 271.214844 308.949219 271.996094 307.984375 271.996094 L 214.46875 271.996094 C 213.503906 271.996094 212.722656 271.214844 212.722656 270.25 Z M 212.722656 252.765625 "/><path style=" stroke:none;fill-rule:evenodd;fill:#032068;fill-opacity:1;" d="M 321.3125 55.496094 L 323.0625 55.496094 L 323.0625 62.644531 L 321.3125 62.644531 Z M 321.3125 55.496094 "/><path style=" stroke:none;fill-rule:evenodd;fill:#032068;fill-opacity:1;" d="M 316.847656 56.390625 L 318.59375 56.390625 L 318.59375 62.644531 L 316.847656 62.644531 Z M 316.847656 56.390625 "/><path style=" stroke:none;fill-rule:evenodd;fill:#032068;fill-opacity:1;" d="M 312.378906 58.175781 L 314.125 58.175781 L 314.125 62.644531 L 312.378906 62.644531 Z M 312.378906 58.175781 "/><path style=" stroke:none;fill-rule:evenodd;fill:#032068;fill-opacity:1;" d="M 307.910156 59.964844 L 309.65625 59.964844 L 309.65625 62.644531 L 307.910156 62.644531 Z M 307.910156 59.964844 "/><path style=" stroke:none;fill-rule:nonzero;fill:#ffffff;fill-opacity:1;" d="M 262.933594 137.007812 C 251.371094 137.007812 241.84375 145.855469 240.566406 157.242188 C 240.40625 158.679688 241.59375 159.859375 243.042969 159.859375 L 282.824219 159.859375 C 284.273438 159.859375 285.460938 158.679688 285.300781 157.242188 C 284.019531 145.855469 274.496094 137.007812 262.933594 137.007812 Z M 262.933594 137.007812 "/><path style=" stroke:none;fill-rule:nonzero;fill:#ffffff;fill-opacity:1;" d="M 274.019531 123.566406 C 274.019531 129.503906 269.207031 134.320312 263.269531 134.320312 C 257.328125 134.320312 252.515625 129.503906 252.515625 123.566406 C 252.515625 117.625 257.328125 112.8125 263.269531 112.8125 C 269.207031 112.8125 274.019531 117.625 274.019531 123.566406 Z M 274.019531 123.566406 "/><path style=" stroke:none;fill-rule:nonzero;fill:#efcb96;fill-opacity:1;" d="M 171.722656 158.398438 L 175.273438 169.382812 C 176.695312 174.546875 171.722656 179.984375 159.886719 179.984375 C 150.417969 179.984375 148.527344 174.574219 149 170.195312 L 151.835938 155.113281 C 149.46875 152.765625 147.578125 151.359375 147.578125 140.097656 C 147.578125 126.019531 155.152344 120.859375 164.148438 120.859375 C 173.140625 120.859375 180.71875 128.359375 180.71875 141.972656 C 180.71875 153.707031 174.40625 157.460938 171.722656 158.398438 Z M 171.722656 158.398438 "/><path style=" stroke:none;fill-rule:nonzero;fill:#032068;fill-opacity:1;" d="M 194.1875 148.105469 C 201.230469 155.453125 200.285156 173.542969 199.207031 179.054688 C 187.796875 170.59375 180.078125 167.792969 176.082031 167.46875 C 175.4375 167.417969 175.320312 168.914062 174.867188 168.976562 L 171.476562 157.75 C 176.574219 156.371094 179.820312 151.78125 180.285156 141.21875 C 180.65625 132.769531 176.421875 126.980469 174.257812 125.144531 C 166.84375 124.6875 163.136719 133.871094 160.820312 137.542969 C 158.964844 140.484375 157.574219 139.992188 157.109375 139.382812 C 154.792969 133.871094 150.621094 133.410156 149.695312 139.382812 C 148.953125 144.15625 152.476562 146.578125 154.332031 147.1875 L 149 170.601562 C 148.375 170.636719 147.785156 168.574219 147.785156 167.652344 C 137.882812 168.753906 127 173.992188 123.753906 176.164062 C 122.363281 161.46875 135.792969 150.402344 139.5 141.21875 C 143.207031 132.035156 138.109375 127.441406 141.816406 121.472656 C 144.566406 117.046875 149.695312 116.417969 152.941406 115.5 C 156.183594 114.582031 158.039062 110.910156 161.746094 109.070312 C 168.234375 106.777344 174.414062 112.441406 176.113281 116.417969 C 177.195312 116.265625 180.285156 116.695312 183.992188 119.632812 C 194.652344 126.980469 185.382812 138.921875 194.1875 148.105469 Z M 194.1875 148.105469 "/><path style=" stroke:none;fill-rule:nonzero;fill:#032068;fill-opacity:1;" d="M 162.304688 157.8125 C 167.828125 159.105469 171.050781 158.621094 171.972656 158.214844 L 173.351562 162.660156 C 167.460938 163.308594 163.53125 159.699219 162.304688 157.8125 Z M 162.304688 157.8125 "/><path style=" stroke:none;fill-rule:nonzero;fill:#f4ad5e;fill-opacity:1;" d="M 161.066406 175.730469 C 170.363281 175.730469 174.726562 170.003906 175.746094 167.140625 C 193.484375 167.140625 208.160156 179.414062 214.890625 188.007812 C 221.617188 196.597656 246.691406 242.015625 240.578125 260.425781 C 235.683594 275.15625 223.859375 277.40625 217.335938 276.382812 L 218.417969 295.910156 C 218.492188 297.304688 217.386719 298.480469 215.996094 298.480469 L 126.207031 298.480469 C 116.828125 299.09375 96.359375 299.339844 89.507812 295.410156 C 80.945312 290.5 72.996094 265.339844 89.507812 215.625 C 102.71875 175.855469 133.75 166.730469 147.613281 167.140625 C 148.222656 170.003906 151.769531 175.730469 161.066406 175.730469 Z M 161.066406 175.730469 "/><path style=" stroke:none;fill-rule:nonzero;fill:#032068;fill-opacity:1;" d="M 116.527344 298.515625 C 101.785156 280.484375 86.195312 274.046875 80.242188 273.085938 C 80.242188 278.863281 83.121094 289.847656 88.304688 295.046875 C 92.453125 299.210938 108.847656 299.09375 116.527344 298.515625 Z M 116.527344 298.515625 "/><path style=" stroke:none;fill-rule:nonzero;fill:#032068;fill-opacity:1;" d="M 230.570312 274.242188 C 240.246094 270.542969 241.898438 257.289062 241.515625 251.121094 C 232.757812 255.285156 220.972656 269.425781 216.171875 275.976562 C 216.9375 276.9375 220.894531 277.941406 230.570312 274.242188 Z M 230.570312 274.242188 "/><path style=" stroke:none;fill-rule:nonzero;fill:#032068;fill-opacity:1;" d="M 159.84375 232.195312 C 155.5625 234.039062 123.761719 248.972656 109.082031 256.132812 C 110.917969 253.0625 118.253906 248.152344 120.089844 246.3125 C 121.925781 244.472656 128.652344 222.988281 128.652344 226.058594 C 128.652344 229.128906 124.984375 243.242188 126.816406 243.242188 C 128.652344 243.242188 154.339844 232.195312 159.84375 232.195312 Z M 159.84375 232.195312 "/><path style=" stroke:none;fill-rule:nonzero;fill:#032068;fill-opacity:1;" d="M 172.6875 249.996094 C 146.757812 284.855469 125.59375 297.253906 118.253906 299.09375 L 131.097656 299.09375 C 153.117188 281.910156 168 259.199219 172.6875 249.996094 Z M 172.6875 249.996094 "/><path style=" stroke:none;fill-rule:nonzero;fill:#032068;fill-opacity:1;" d="M 204.492188 243.859375 C 205.46875 255.640625 213.871094 270.453125 217.945312 276.386719 L 217.945312 281.910156 C 208.652344 271.597656 205.105469 252.246094 204.492188 243.859375 Z M 204.492188 243.859375 "/><path style=" stroke:none;fill-rule:nonzero;fill:#032068;fill-opacity:1;" d="M 216.113281 227.285156 C 219.539062 229.25 225.695312 233.832031 228.34375 235.878906 L 218.558594 224.21875 C 218.070312 226.183594 216.722656 227.082031 216.113281 227.285156 Z M 216.113281 227.285156 "/><path style=" stroke:none;fill-rule:nonzero;fill:#ffffff;fill-opacity:1;" d="M 179.957031 204.640625 L 175.246094 250.765625 C 175.191406 251.300781 175.664062 251.742188 176.191406 251.644531 L 198.417969 247.640625 C 198.757812 247.582031 199.023438 247.308594 199.074219 246.964844 L 205.566406 203.125 C 205.644531 202.609375 205.226562 202.15625 204.710938 202.195312 L 180.707031 203.914062 C 180.3125 203.945312 180 204.25 179.957031 204.640625 Z M 179.957031 204.640625 "/><path style=" stroke:none;fill-rule:evenodd;fill:#032068;fill-opacity:1;" d="M 204.652344 201.386719 C 205.683594 201.3125 206.519531 202.214844 206.367188 203.242188 L 199.871094 247.082031 C 199.769531 247.769531 199.242188 248.316406 198.558594 248.441406 L 176.332031 252.445312 C 175.273438 252.632812 174.328125 251.753906 174.441406 250.683594 L 179.152344 204.558594 C 179.234375 203.773438 179.863281 203.164062 180.648438 203.105469 Z M 204.765625 203.003906 L 180.761719 204.726562 L 176.046875 250.847656 L 198.273438 246.84375 Z M 204.765625 203.003906 "/><path style=" stroke:none;fill-rule:nonzero;fill:#efcb96;fill-opacity:1;" d="M 211.832031 227.285156 L 204.492188 238.332031 C 194.707031 238.949219 192.871094 233.425781 194.707031 224.832031 C 196.175781 217.957031 201.636719 217.875 203.878906 218.695312 L 205.105469 213.785156 C 211.832031 219.308594 211.832031 224.628906 211.832031 227.285156 Z M 211.832031 227.285156 "/><path style=" stroke:none;fill-rule:nonzero;fill:#efcb96;fill-opacity:1;" d="M 169.019531 226.058594 C 167.550781 229.988281 164.738281 232.605469 163.515625 233.425781 L 171.464844 245.699219 C 173.910156 243.242188 176.96875 243.242188 183.695312 240.175781 C 190.425781 237.105469 192.257812 226.058594 190.425781 219.921875 C 188.957031 215.011719 180.433594 218.695312 176.96875 221.148438 L 177.582031 214.398438 C 173.300781 216.238281 170.855469 221.148438 169.019531 226.058594 Z M 169.019531 226.058594 "/><path style=" stroke:none;fill-rule:nonzero;fill:#ffffff;fill-opacity:1;" d="M 382.273438 111.164062 C 382.273438 127.578125 368.96875 140.882812 352.558594 140.882812 C 336.148438 140.882812 322.84375 127.578125 322.84375 111.164062 C 322.84375 94.75 336.148438 81.445312 352.558594 81.445312 C 368.96875 81.445312 382.273438 94.75 382.273438 111.164062 Z M 382.273438 111.164062 "/><path style=" stroke:none;fill-rule:evenodd;fill:#032068;fill-opacity:1;" d="M 352.558594 82.175781 C 336.550781 82.175781 323.574219 95.152344 323.574219 111.164062 C 323.574219 127.175781 336.550781 140.152344 352.558594 140.152344 C 368.566406 140.152344 381.542969 127.175781 381.542969 111.164062 C 381.542969 95.152344 368.566406 82.175781 352.558594 82.175781 Z M 322.113281 111.164062 C 322.113281 94.347656 335.742188 80.714844 352.558594 80.714844 C 369.371094 80.714844 383.003906 94.347656 383.003906 111.164062 C 383.003906 127.980469 369.371094 141.613281 352.558594 141.613281 C 335.742188 141.613281 322.113281 127.980469 322.113281 111.164062 Z M 322.113281 111.164062 "/><path style=" stroke:none;fill-rule:evenodd;fill:#032068;fill-opacity:1;" d="M 352.910156 92.765625 C 347.242188 92.765625 342.648438 97.433594 342.648438 103.195312 L 342.648438 110.335938 C 342.648438 111.183594 343.335938 111.871094 344.183594 111.871094 C 345.03125 111.871094 345.71875 111.183594 345.71875 110.335938 L 345.71875 103 C 345.71875 98.964844 348.9375 95.691406 352.910156 95.691406 C 356.878906 95.691406 360.101562 98.964844 360.101562 103 L 360.101562 109.953125 C 360.101562 110.800781 360.785156 111.488281 361.632812 111.488281 C 362.480469 111.488281 363.167969 110.800781 363.167969 109.953125 L 363.167969 103.195312 C 363.167969 97.433594 358.574219 92.765625 352.910156 92.765625 Z M 352.910156 92.765625 "/><path style=" stroke:none;fill-rule:nonzero;fill:#f4ad5e;fill-opacity:1;" d="M 339.820312 110.527344 C 339.820312 109.316406 340.800781 108.332031 342.011719 108.332031 L 363.804688 108.332031 C 365.015625 108.332031 365.996094 109.316406 365.996094 110.527344 L 365.996094 126.660156 C 365.996094 127.871094 365.015625 128.855469 363.804688 128.855469 L 342.011719 128.855469 C 340.800781 128.855469 339.820312 127.871094 339.820312 126.660156 Z M 339.820312 110.527344 "/><path style=" stroke:none;fill-rule:evenodd;fill:#ffffff;fill-opacity:1;" d="M 354.578125 119.441406 C 355.183594 118.953125 355.570312 118.207031 355.570312 117.367188 C 355.570312 115.894531 354.378906 114.703125 352.910156 114.703125 C 351.4375 114.703125 350.242188 115.894531 350.242188 117.367188 C 350.242188 118.28125 350.707031 119.085938 351.40625 119.566406 L 350.8125 122.0625 C 350.722656 122.4375 351.007812 122.792969 351.386719 122.792969 L 354.625 122.792969 C 355.007812 122.792969 355.289062 122.4375 355.203125 122.0625 Z M 354.578125 119.441406 "/></g></svg>