<svg xmlns="http://www.w3.org/2000/svg" xmlns:xlink="http://www.w3.org/1999/xlink" width="600" zoomAndPan="magnify" viewBox="0 0 450 299.999988" height="400" preserveAspectRatio="xMidYMid meet" version="1.2"><defs><clipPath id="cc96614925"><path d="M 308 6.75 L 368.25 6.75 L 368.25 60 L 308 60 Z M 308 6.75 "/></clipPath><clipPath id="6b08fd7654"><path d="M 91 221 L 102 221 L 102 293.25 L 91 293.25 Z M 91 221 "/></clipPath><clipPath id="6cf687fc85"><path d="M 120 202 L 130 202 L 130 293.25 L 120 293.25 Z M 120 202 "/></clipPath><clipPath id="82a4330357"><path d="M 148 207 L 159 207 L 159 293.25 L 148 293.25 Z M 148 207 "/></clipPath><clipPath id="033413fe41"><path d="M 177 192 L 188 192 L 188 293.25 L 177 293.25 Z M 177 192 "/></clipPath><clipPath id="a1edc51fef"><path d="M 206 202 L 216 202 L 216 293.25 L 206 293.25 Z M 206 202 "/></clipPath><clipPath id="a27c984734"><path d="M 234 202 L 245 202 L 245 293.25 L 234 293.25 Z M 234 202 "/></clipPath><clipPath id="0eeb2c3405"><path d="M 263 192 L 273 192 L 273 293.25 L 263 293.25 Z M 263 192 "/></clipPath><clipPath id="d2543027c2"><path d="M 291 173 L 302 173 L 302 293.25 L 291 293.25 Z M 291 173 "/></clipPath><clipPath id="85d4c8ea5d"><path d="M 320 150 L 331 150 L 331 293.25 L 320 293.25 Z M 320 150 "/></clipPath><clipPath id="e5a9bf94cd"><path d="M 349 116 L 359 116 L 359 293.25 L 349 293.25 Z M 349 116 "/></clipPath><clipPath id="84d29652d1"><path d="M 82 283 L 368.25 283 L 368.25 293.25 L 82 293.25 Z M 82 283 "/></clipPath></defs><g id="afdecfc2cd"><path style=" stroke:none;fill-rule:nonzero;fill:#ced5dc;fill-opacity:1;" d="M 343.613281 100.1875 C 333.929688 114.636719 284.585938 183.371094 225.238281 183.371094 C 210.324219 183.371094 196.023438 179.03125 182.800781 172.253906 C 179.800781 170.726562 176.839844 169.066406 173.992188 167.300781 C 139.1875 146.089844 113.546875 110.152344 106.863281 100.1875 C 105.78125 98.605469 105.78125 96.519531 106.863281 94.9375 C 116.546875 80.488281 165.890625 11.753906 225.238281 11.753906 C 257.414062 11.753906 286.6875 31.960938 308.234375 52.796875 C 310.578125 55.050781 312.8125 57.285156 314.898438 59.519531 C 329.59375 74.769531 339.742188 89.164062 343.613281 94.9375 C 344.695312 96.519531 344.695312 98.605469 343.613281 100.1875 "/><path style=" stroke:none;fill-rule:nonzero;fill:#4877c5;fill-opacity:1;" d="M 287.210938 97.5625 C 287.210938 131.789062 259.464844 159.535156 225.238281 159.535156 C 191.011719 159.535156 163.265625 131.789062 163.265625 97.5625 C 163.265625 63.335938 191.011719 35.589844 225.238281 35.589844 C 259.464844 35.589844 287.210938 63.335938 287.210938 97.5625 "/><path style=" stroke:none;fill-rule:nonzero;fill:#303338;fill-opacity:1;" d="M 252.796875 105.140625 C 253.503906 102.71875 253.839844 100.1875 253.839844 97.5625 C 253.839844 81.789062 241.011719 68.960938 225.238281 68.960938 C 209.464844 68.960938 196.636719 81.789062 196.636719 97.5625 C 196.636719 113.335938 209.464844 126.164062 225.238281 126.164062 C 227.863281 126.164062 230.394531 125.828125 232.816406 125.121094 L 252.796875 105.140625 "/><path style=" stroke:none;fill-rule:nonzero;fill:#eceff1;fill-opacity:1;" d="M 258.609375 116.628906 C 258.609375 124.527344 252.203125 130.933594 244.304688 130.933594 C 236.410156 130.933594 230.003906 124.527344 230.003906 116.628906 C 230.003906 108.734375 236.410156 102.328125 244.304688 102.328125 C 252.203125 102.328125 258.609375 108.734375 258.609375 116.628906 "/><path style=" stroke:none;fill-rule:nonzero;fill:#56c496;fill-opacity:1;" d="M 182.800781 172.253906 L 161.609375 190.667969 C 157.734375 193.851562 152.261719 193.574219 148.722656 190.183594 L 134.273438 175.417969 L 89.953125 210.929688 C 89.097656 211.636719 88.035156 211.972656 86.992188 211.972656 C 85.617188 211.972656 84.238281 211.355469 83.269531 210.164062 C 81.613281 208.117188 81.949219 205.101562 84.03125 203.480469 L 128.3125 168.027344 C 132.132812 164.972656 137.625 165.308594 141.050781 168.675781 L 155.445312 183.425781 L 173.992188 167.300781 C 176.839844 169.066406 179.800781 170.726562 182.800781 172.253906 "/><g clip-rule="nonzero" clip-path="url(#cc96614925)"><path style=" stroke:none;fill-rule:nonzero;fill:#56c496;fill-opacity:1;" d="M 368.195312 11.121094 C 367.894531 9.503906 366.851562 8.085938 365.328125 7.433594 C 364.785156 7.210938 364.097656 6.988281 363.484375 6.988281 L 344.414062 6.988281 C 341.789062 6.988281 339.648438 9.128906 339.648438 11.753906 C 339.648438 14.382812 341.789062 16.523438 344.414062 16.523438 L 350.558594 16.523438 L 308.511719 52.460938 C 308.382812 52.554688 308.269531 52.667969 308.234375 52.796875 C 310.578125 55.050781 312.8125 57.285156 314.898438 59.519531 L 358.714844 22.089844 L 358.714844 30.824219 C 358.714844 33.449219 360.855469 35.589844 363.484375 35.589844 C 366.109375 35.589844 368.25 33.449219 368.25 30.824219 C 368.25 30.824219 368.25 11.753906 368.25 11.753906 C 368.25 11.550781 368.230469 11.328125 368.195312 11.121094 "/></g><g clip-rule="nonzero" clip-path="url(#6b08fd7654)"><path style=" stroke:none;fill-rule:nonzero;fill:#56c496;fill-opacity:1;" d="M 96.527344 293.011719 C 93.902344 293.011719 91.761719 290.871094 91.761719 288.246094 L 91.761719 226.273438 C 91.761719 223.648438 93.902344 221.503906 96.527344 221.503906 C 99.152344 221.503906 101.296875 223.648438 101.296875 226.273438 L 101.296875 288.246094 C 101.296875 290.871094 99.152344 293.011719 96.527344 293.011719 "/></g><g clip-rule="nonzero" clip-path="url(#6cf687fc85)"><path style=" stroke:none;fill-rule:nonzero;fill:#56c496;fill-opacity:1;" d="M 125.128906 293.011719 C 122.503906 293.011719 120.363281 290.871094 120.363281 288.246094 L 120.363281 207.203125 C 120.363281 204.578125 122.503906 202.4375 125.128906 202.4375 C 127.753906 202.4375 129.898438 204.578125 129.898438 207.203125 L 129.898438 288.246094 C 129.898438 290.871094 127.753906 293.011719 125.128906 293.011719 "/></g><g clip-rule="nonzero" clip-path="url(#82a4330357)"><path style=" stroke:none;fill-rule:nonzero;fill:#56c496;fill-opacity:1;" d="M 153.734375 293.011719 C 151.105469 293.011719 148.964844 290.871094 148.964844 288.246094 L 148.964844 211.972656 C 148.964844 209.347656 151.105469 207.203125 153.734375 207.203125 C 156.359375 207.203125 158.5 209.347656 158.5 211.972656 L 158.5 288.246094 C 158.5 290.871094 156.359375 293.011719 153.734375 293.011719 "/></g><g clip-rule="nonzero" clip-path="url(#033413fe41)"><path style=" stroke:none;fill-rule:nonzero;fill:#56c496;fill-opacity:1;" d="M 182.335938 293.011719 C 179.710938 293.011719 177.566406 290.871094 177.566406 288.246094 L 177.566406 197.671875 C 177.566406 195.046875 179.710938 192.902344 182.335938 192.902344 C 184.960938 192.902344 187.101562 195.046875 187.101562 197.671875 L 187.101562 288.246094 C 187.101562 290.871094 184.960938 293.011719 182.335938 293.011719 "/></g><g clip-rule="nonzero" clip-path="url(#a1edc51fef)"><path style=" stroke:none;fill-rule:nonzero;fill:#56c496;fill-opacity:1;" d="M 210.9375 293.011719 C 208.3125 293.011719 206.171875 290.871094 206.171875 288.246094 L 206.171875 207.203125 C 206.171875 204.578125 208.3125 202.4375 210.9375 202.4375 C 213.5625 202.4375 215.703125 204.578125 215.703125 207.203125 L 215.703125 288.246094 C 215.703125 290.871094 213.5625 293.011719 210.9375 293.011719 "/></g><g clip-rule="nonzero" clip-path="url(#a27c984734)"><path style=" stroke:none;fill-rule:nonzero;fill:#56c496;fill-opacity:1;" d="M 239.539062 293.011719 C 236.914062 293.011719 234.773438 290.871094 234.773438 288.246094 L 234.773438 207.203125 C 234.773438 204.578125 236.914062 202.4375 239.539062 202.4375 C 242.164062 202.4375 244.304688 204.578125 244.304688 207.203125 L 244.304688 288.246094 C 244.304688 290.871094 242.164062 293.011719 239.539062 293.011719 "/></g><g clip-rule="nonzero" clip-path="url(#0eeb2c3405)"><path style=" stroke:none;fill-rule:nonzero;fill:#56c496;fill-opacity:1;" d="M 268.140625 293.011719 C 265.515625 293.011719 263.375 290.871094 263.375 288.246094 L 263.375 197.671875 C 263.375 195.046875 265.515625 192.902344 268.140625 192.902344 C 270.765625 192.902344 272.910156 195.046875 272.910156 197.671875 L 272.910156 288.246094 C 272.910156 290.871094 270.765625 293.011719 268.140625 293.011719 "/></g><g clip-rule="nonzero" clip-path="url(#d2543027c2)"><path style=" stroke:none;fill-rule:nonzero;fill:#56c496;fill-opacity:1;" d="M 296.746094 293.011719 C 294.117188 293.011719 291.976562 290.871094 291.976562 288.246094 L 291.976562 178.601562 C 291.976562 175.976562 294.117188 173.835938 296.746094 173.835938 C 299.371094 173.835938 301.511719 175.976562 301.511719 178.601562 L 301.511719 288.246094 C 301.511719 290.871094 299.371094 293.011719 296.746094 293.011719 "/></g><g clip-rule="nonzero" clip-path="url(#85d4c8ea5d)"><path style=" stroke:none;fill-rule:nonzero;fill:#56c496;fill-opacity:1;" d="M 325.347656 293.011719 C 322.722656 293.011719 320.578125 290.871094 320.578125 288.246094 L 320.578125 154.765625 C 320.578125 152.140625 322.722656 150 325.347656 150 C 327.972656 150 330.113281 152.140625 330.113281 154.765625 L 330.113281 288.246094 C 330.113281 290.871094 327.972656 293.011719 325.347656 293.011719 "/></g><g clip-rule="nonzero" clip-path="url(#e5a9bf94cd)"><path style=" stroke:none;fill-rule:nonzero;fill:#56c496;fill-opacity:1;" d="M 353.949219 293.011719 C 351.324219 293.011719 349.183594 290.871094 349.183594 288.246094 L 349.183594 121.398438 C 349.183594 118.773438 351.324219 116.628906 353.949219 116.628906 C 356.574219 116.628906 358.714844 118.773438 358.714844 121.398438 L 358.714844 288.246094 C 358.714844 290.871094 356.574219 293.011719 353.949219 293.011719 "/></g><g clip-rule="nonzero" clip-path="url(#84d29652d1)"><path style=" stroke:none;fill-rule:nonzero;fill:#49c08e;fill-opacity:1;" d="M 363.484375 293.011719 L 86.992188 293.011719 C 84.367188 293.011719 82.226562 290.871094 82.226562 288.246094 C 82.226562 285.617188 84.367188 283.476562 86.992188 283.476562 L 363.484375 283.476562 C 366.109375 283.476562 368.25 285.617188 368.25 288.246094 C 368.25 290.871094 366.109375 293.011719 363.484375 293.011719 "/></g><path style=" stroke:none;fill-rule:nonzero;fill:#56c496;fill-opacity:1;" d="M 353.949219 73.726562 C 351.324219 73.726562 349.183594 71.585938 349.183594 68.960938 L 349.183594 49.890625 C 349.183594 47.265625 351.324219 45.125 353.949219 45.125 C 356.574219 45.125 358.714844 47.265625 358.714844 49.890625 L 358.714844 68.960938 C 358.714844 71.585938 356.574219 73.726562 353.949219 73.726562 "/></g></svg>